<svg width="198" height="32" viewBox="0 0 149 24" fill="none" xmlns="http://www.w3.org/2000/svg">
<path d="M6.82556 1.02762C5.16058 1.02762 3.69186 1.52682 2.63253 2.57555C1.21446 3.97875 0.733324 6.17478 1.28199 8.75883C1.84752 11.4226 3.42808 14.1619 5.74933 16.4671C10.4551 21.1674 16.7225 22.5832 19.7127 19.6132C21.1308 18.21 21.6119 16.014 21.0632 13.4299C20.4977 10.7641 18.915 8.02478 16.6064 5.71964C13.5571 2.69091 9.86636 1.02762 6.82556 1.02762ZM15.5281 22.1973C12.1897 22.1973 8.22674 20.4438 4.98965 17.2095C2.53968 14.7618 0.855721 11.8379 0.247974 8.97701C-0.385093 6.04054 0.20577 3.49634 1.88551 1.83305C5.29141 -1.53547 12.2256 -0.119686 17.3408 4.99183C19.7908 7.43955 21.4747 10.3634 22.0824 13.2244C22.7155 16.1608 22.1247 18.705 20.4449 20.3683C19.1957 21.6016 17.4674 22.1931 15.5302 22.1931L15.5281 22.1973Z" fill="#0000C8"/>
<path d="M10.3096 2.14557C9.38746 2.13525 8.4724 2.30658 7.6173 2.64966C6.76214 2.99274 5.98387 3.50078 5.32734 4.14446C3.78054 5.67769 3.14325 7.95133 3.53364 10.5459C3.94092 13.2013 5.36532 15.8608 7.54308 18.038C12.0041 22.4888 18.2694 23.4914 21.5064 20.2907C23.0532 18.7574 23.6905 16.4838 23.3001 13.8893C22.8929 11.2339 21.4684 8.57431 19.2907 6.39711C16.5242 3.64526 13.152 2.14557 10.3096 2.14557ZM4.57398 3.40405C8.22467 -0.214065 15.1568 0.799007 20.0293 5.65882C22.3695 7.99119 23.8973 10.8605 24.3194 13.734C24.7688 16.6704 24.0281 19.2587 22.2386 21.0332C20.9726 22.2917 19.2844 22.9461 17.4126 23.0614C15.429 23.2271 13.2533 22.7951 11.1557 21.803C9.52559 21.0662 8.04394 20.0406 6.78338 18.7763C4.44315 16.4418 2.91746 13.5726 2.48486 10.699C2.04383 7.76886 2.7824 5.1764 4.57398 3.39985V3.40405Z" fill="#2400D0"/>
<path d="M13.8949 2.89221C11.7159 2.91521 9.63496 3.79623 8.10865 5.34205C6.43522 7.0032 5.63333 9.35449 5.87178 11.9616C6.11235 14.6044 7.38694 17.1885 9.44015 19.2356C13.6606 23.4305 19.9216 24.0451 23.4035 20.5864C25.0769 18.9252 25.8788 16.574 25.6404 13.9668C25.3998 11.324 24.1252 8.7399 22.0719 6.69283C19.5967 4.22619 16.5411 2.89221 13.8949 2.89221ZM7.35313 4.59954C11.2486 0.733922 18.1807 1.34009 22.8085 5.9524C25.0389 8.17571 26.3958 10.9863 26.6638 13.8745C26.9297 16.7962 26.0307 19.4433 24.1315 21.3289C22.847 22.5752 21.1803 23.3593 19.3962 23.5564C17.2803 23.8749 15.1171 23.6139 13.1394 22.8013C11.4601 22.1977 9.93586 21.2321 8.67627 19.9739C6.44578 17.7506 5.08888 14.94 4.82089 12.0518C4.57188 9.13427 5.4624 6.48099 7.36157 4.59325L7.35313 4.59954Z" fill="#4900D8"/>
<path d="M17.5413 3.26766C15.2876 3.26766 12.8671 4.26605 10.9574 6.16844C10.0624 7.06368 9.36291 8.13284 8.90252 9.30896C8.44208 10.4852 8.23076 11.7431 8.28162 13.0041C8.37921 15.6662 9.49733 18.1906 11.4068 20.0599C15.3783 24.0157 21.6436 24.2171 25.3702 20.5109C26.2666 19.6159 26.9674 18.5467 27.4289 17.3701C27.8904 16.1936 28.1026 14.935 28.0523 13.6731C27.9547 11.011 26.8366 8.48663 24.927 6.61733C22.7303 4.43175 19.9912 3.26766 17.5413 3.26766ZM10.2125 5.43224C14.3506 1.31702 21.2848 1.52047 25.6678 5.88319C27.7607 7.94186 28.9817 10.7186 29.08 13.6438C29.1396 15.0474 28.9066 16.4482 28.3957 17.7581C27.8848 19.0679 27.1069 20.2587 26.1109 21.2554C24.8403 22.5051 23.2242 23.3507 21.4684 23.6843C19.3997 24.1783 17.2334 24.0911 15.2116 23.4326C13.49 22.9639 11.9208 22.0582 10.6578 20.8045C8.56473 18.7459 7.3438 15.969 7.24548 13.0439C7.18558 11.6404 7.4182 10.2398 7.92878 8.92991C8.43935 7.62003 9.21689 6.42925 10.2125 5.43224Z" fill="#6D00E0"/>
<path d="M21.2089 3.26558C18.7589 3.26558 16.0198 4.43177 13.8231 6.62149C11.9136 8.49085 10.7954 11.0151 10.6979 13.6774C10.6475 14.9392 10.8597 16.1978 11.3212 17.3744C11.7827 18.5509 12.4836 19.6201 13.3799 20.5151C17.1066 24.2213 23.3718 24.0199 27.3433 20.0641C29.2528 18.1948 30.3709 15.6705 30.4685 13.0082C30.5189 11.7464 30.3067 10.4879 29.8452 9.31132C29.3836 8.13477 28.6828 7.06555 27.7864 6.17055C25.883 4.26607 23.4605 3.26558 21.2089 3.26558ZM13.0824 5.87482C17.4653 1.51001 24.3995 1.30865 28.5377 5.42387C29.5337 6.42068 30.3116 7.61141 30.8225 8.92128C31.3334 10.2312 31.5664 11.6319 31.5068 13.0356C31.4085 15.9607 30.1875 18.7375 28.0946 20.7961C26.8314 22.0497 25.2622 22.9554 23.5407 23.4243C21.5188 24.0828 19.3527 24.1699 17.2838 23.676C15.5281 23.3424 13.9119 22.4969 12.6414 21.2471C11.6454 20.2503 10.8675 19.0595 10.3565 17.7497C9.84561 16.4398 9.61263 15.039 9.67228 13.6354C9.77005 10.7106 10.9902 7.93384 13.0824 5.87482Z" fill="#9200E7"/>
<path d="M24.8554 2.89222C22.2092 2.89222 19.1578 4.22411 16.6783 6.69283C14.625 8.73996 13.3505 11.324 13.1099 13.9668C12.8735 16.574 13.6754 18.9252 15.3467 20.5864C18.8286 24.0451 25.0938 23.4389 29.3101 19.2356C31.3633 17.1885 32.6379 14.6044 32.8784 11.9617C33.1148 9.3545 32.3129 7.00327 30.6416 5.34206C29.1152 3.79624 27.0344 2.91522 24.8554 2.89222ZM15.9312 5.95241C20.5589 1.338 27.4932 0.731839 31.3865 4.59955C33.2857 6.48726 34.1763 9.13427 33.9188 12.0539C33.6571 14.94 32.2939 17.7527 30.0634 19.976C28.7995 21.236 27.2701 22.2017 25.5855 22.8034C23.6078 23.6158 21.4446 23.8769 19.3287 23.5585C17.5443 23.361 15.8775 22.5761 14.5934 21.3289C12.6942 19.4411 11.8036 16.7942 12.0611 13.8745C12.3396 10.9905 13.7008 8.17572 15.9312 5.95241Z" fill="#B600EF"/>
<path d="M28.4384 2.14557C25.596 2.14557 22.2217 3.64526 19.4657 6.39712C17.2837 8.57426 15.8594 11.2339 15.4563 13.8893C15.068 16.4859 15.7053 18.7596 17.25 20.2907C20.4871 23.4998 26.746 22.4888 31.2133 18.038C33.3953 15.8608 34.8197 13.2013 35.2228 10.5459C35.611 7.94923 34.9738 5.67559 33.4291 4.14445C32.7715 3.49986 31.9918 2.9913 31.1352 2.64819C30.2785 2.30509 29.3619 2.13425 28.4384 2.14557ZM18.7166 5.65672C23.5891 0.794806 30.5212 -0.216168 34.1719 3.40195C35.9634 5.1764 36.7042 7.76886 36.2526 10.7011C35.8305 13.5746 34.2943 16.444 31.9541 18.7784C30.6935 20.0427 29.2118 21.0683 27.5817 21.805C25.4862 22.795 23.3085 23.2271 21.3249 23.0635C19.451 22.9482 17.7628 22.2854 16.4987 21.0353C14.7072 19.2608 13.9665 16.6683 14.4181 13.7361C14.8528 10.8605 16.3785 7.9912 18.7187 5.65672H18.7166Z" fill="#DB00F7"/>
<path d="M31.9161 1.0276C28.8773 1.0276 25.1865 2.69299 22.1457 5.73011C19.8371 8.03732 18.2544 10.764 17.6889 13.4404C17.1403 16.0244 17.6214 18.2205 19.0394 19.6237C22.0339 22.5853 28.297 21.1695 33.0028 16.4775C35.3114 14.1703 36.894 11.4436 37.4596 8.76722C38.0083 6.18316 37.5271 3.98712 36.109 2.58392C35.056 1.5247 33.5874 1.0276 31.9161 1.0276ZM23.2198 22.1931C21.2805 22.1931 19.5543 21.6016 18.303 20.3641C16.6148 18.7008 16.0408 16.1692 16.6654 13.2202C17.2732 10.3571 18.955 7.43322 21.4071 4.98761C26.5244 -0.121802 33.4565 -1.53969 36.8624 1.82884C38.5506 3.49212 39.1246 6.02372 38.4999 8.97279C37.8922 11.8358 36.2103 14.7597 33.7583 17.2053C30.5212 20.4396 26.556 22.1931 23.2198 22.1931Z" fill="#FF00FF"/>
<path d="M147.535 6.16007C147.147 6.16007 146.775 6.0067 146.5 5.73371C146.225 5.46073 146.071 5.09049 146.071 4.70443C146.071 4.31837 146.225 3.94812 146.5 3.67513C146.775 3.40215 147.147 3.24879 147.535 3.24879C147.727 3.24879 147.918 3.28644 148.096 3.35959C148.274 3.43274 148.435 3.53997 148.571 3.67513C148.707 3.8103 148.815 3.97077 148.888 4.14737C148.962 4.32398 149 4.51327 149 4.70443C149 4.89558 148.962 5.08486 148.888 5.26147C148.815 5.43808 148.707 5.59855 148.571 5.73371C148.435 5.86888 148.274 5.9761 148.096 6.04923C147.918 6.12244 147.727 6.16007 147.535 6.16007ZM51.5412 7.18152H47.728V4.7296H54.0946V3.21523H46.0209V13.1026H54.4618V11.5883H47.728V8.69588H51.5412V7.18152ZM64.3061 3.21523V10.0739H64.2915L58.5472 3.21523H57.0489V13.1026H58.754V6.24395H58.7688L64.513 13.1026H66.0217V3.21523H64.3061ZM68.3431 4.7296H72.2575V13.1026H73.9622V4.7296H77.8621V3.21523H68.3534L68.3431 4.7296ZM85.7267 7.18152H81.9094V4.7275H88.2781V3.21313H80.2022V13.1006H88.6434V11.5862H81.9094V8.69588H85.7267V7.18152ZM91.2263 3.21523V13.1026H99.0339V11.5883H92.9377V3.21523H91.2263ZM106.764 7.18152H102.944V4.7275H109.313V3.21313H101.239V13.1006H109.68V11.5862H102.944V8.69588H106.768L106.764 7.18152ZM120.366 10.225C119.891 10.7401 119.314 11.1535 118.672 11.4398C118.031 11.7261 117.336 11.8795 116.633 11.8903C114.409 11.8903 112.961 10.225 112.961 8.16523C112.961 6.10555 114.377 4.42546 116.549 4.42546C117.834 4.44779 119.068 4.9321 120.022 5.78881L121.181 4.65409C119.897 3.53108 118.246 2.91272 116.536 2.91529C113.352 2.91529 111.174 5.29171 111.174 8.15896C111.174 11.066 113.337 13.4026 116.612 13.4026C117.526 13.398 118.43 13.2136 119.272 12.8601C120.114 12.5066 120.878 11.991 121.518 11.3429L120.366 10.225ZM125.642 13.1026V8.46939H131.05V13.1026H132.756V3.21523H131.05V6.95503H125.657V3.21523H123.951V13.1026H125.642ZM142.735 3.21523L139.886 7.03053L137.037 3.21523H134.895L138.979 8.54489V13.1026H140.683V8.54489L144.766 3.21523H142.735ZM58.372 23.3026H59.2288L59.8007 22.021H62.0776L62.6559 23.3026H63.5565L61.339 18.5498H60.5919L58.372 23.3026ZM60.9215 19.5272H60.9658L61.7863 21.3688H60.0982L60.9215 19.5272ZM74.3506 21.9225C74.1218 22.1702 73.8451 22.3689 73.5368 22.5067C73.2285 22.6444 72.8947 22.7183 72.5567 22.7237C72.3206 22.7294 72.0851 22.6867 71.866 22.5982C71.6469 22.5097 71.4485 22.3774 71.2828 22.2093C71.1177 22.0413 70.9885 21.8412 70.9041 21.6216C70.8198 21.4019 70.7821 21.1674 70.7931 20.9325C70.7931 19.9509 71.4746 19.1349 72.5209 19.1349C73.1387 19.1455 73.7316 19.378 74.1904 19.7893L74.7475 19.244C74.1285 18.7016 73.3311 18.4032 72.5063 18.405C72.1689 18.3945 71.8327 18.4521 71.5183 18.5743C71.2039 18.6965 70.9175 18.8808 70.6765 19.116C70.4356 19.3512 70.2456 19.6325 70.117 19.943C69.9889 20.2534 69.9252 20.5864 69.9295 20.922C69.9295 22.3189 70.9703 23.4389 72.5445 23.4389C72.9833 23.4366 73.4178 23.3479 73.8226 23.1779C74.2268 23.0081 74.5934 22.7603 74.9017 22.449L74.3506 21.9225ZM81.2048 23.3047H82.0611L82.6334 22.0232H84.9104L85.4882 23.3047H86.3894L84.1719 18.5519H83.4248L81.2048 23.3047ZM83.7537 19.5293H83.798L84.6191 21.3709H82.9308L83.7537 19.5293ZM95.5437 23.3047C96.4067 23.3047 96.8394 23.095 97.2484 22.7216C97.6915 22.2406 97.9409 21.6149 97.9506 20.963C97.9597 20.3112 97.7279 19.6786 97.2994 19.1853C96.8898 18.7931 96.4067 18.556 95.5413 18.556H93.2497V23.3026L95.5437 23.3047ZM94.0665 22.5769V19.2755H95.5012C96.1008 19.2755 96.3581 19.4286 96.6282 19.6761C96.9395 20.0149 97.1052 20.4613 97.0907 20.9199C97.1016 21.3946 96.925 21.8548 96.5985 22.2014C96.4528 22.337 96.2792 22.4401 96.0899 22.5042C95.9012 22.5682 95.7003 22.5915 95.5012 22.5727L94.0665 22.5769ZM107.73 20.4584H105.892V19.2755H108.952V18.5477H105.075V23.3026H109.131V22.5748H105.897V21.1842H107.734L107.73 20.4584ZM121.145 23.3047V18.5498H120.334L118.672 21.3519H118.657L116.994 18.5498H116.15V23.3026H116.933V20.0704H116.969L118.557 22.7342H118.689L120.277 20.0704H120.334V23.3026L121.145 23.3047ZM131.73 18.5498L130.36 20.3829L128.986 18.5498H127.953L129.915 21.1107V23.3026H130.736V21.1128L132.698 18.5519L131.73 18.5498Z" fill="#0000C8"/>
<path d="M146.85 5.47424V3.92631H147.713C147.798 3.91982 147.884 3.93141 147.965 3.96033C148.046 3.98926 148.119 4.03485 148.181 4.09411C148.265 4.18047 148.311 4.29552 148.31 4.41502C148.308 4.5108 148.277 4.60376 148.221 4.68164C148.164 4.75952 148.086 4.81867 147.996 4.85129L148.36 5.48053H147.979L147.664 4.91212H147.202V5.48053L146.85 5.47424ZM147.192 4.21576V4.62058H147.75C147.807 4.62058 147.86 4.59848 147.9 4.55914C147.939 4.51981 147.962 4.46646 147.962 4.41083C147.962 4.38597 147.957 4.3613 147.948 4.33827C147.939 4.31523 147.925 4.29427 147.907 4.27659C147.883 4.25263 147.854 4.23421 147.821 4.22261C147.789 4.21102 147.755 4.20654 147.721 4.20947L147.192 4.21576Z" fill="white"/>
</svg>
